<svg width="34" height="37" viewBox="0 0 34 37" fill="none" xmlns="http://www.w3.org/2000/svg">
<path d="M1.83325 21.9167V29.4333C1.83325 29.7052 1.94124 29.9659 2.13347 30.1581C2.32569 30.3503 2.5864 30.4583 2.85825 30.4583H12.0833M27.4583 21.9167V29.4333C27.4583 29.7052 27.3503 29.9659 27.158 30.1581C26.9658 30.3503 26.7051 30.4583 26.4333 30.4583H18.9166M18.9166 6.54167H26.4333C26.7051 6.54167 26.9658 6.64966 27.158 6.84189C27.3503 7.03411 27.4583 7.29482 27.4583 7.56667V15.0833M1.83325 15.0833V7.56667C1.83325 7.29482 1.94124 7.03411 2.13347 6.84189C2.32569 6.64966 2.5864 6.54167 2.85825 6.54167H12.0833M18.9166 30.4583V32.1667C18.9166 33.0728 18.5566 33.9419 17.9159 34.5826C17.2751 35.2234 16.4061 35.5833 15.4999 35.5833C14.5938 35.5833 13.7247 35.2234 13.084 34.5826C12.4432 33.9419 12.0833 33.0728 12.0833 32.1667V30.4583M1.83325 15.0833H3.54159C4.44774 15.0833 5.31678 15.4433 5.95753 16.0841C6.59828 16.7248 6.95825 17.5938 6.95825 18.5C6.95825 19.4062 6.59828 20.2752 5.95753 20.916C5.31678 21.5567 4.44774 21.9167 3.54159 21.9167H1.83325M27.4583 15.0833H29.1666C30.0727 15.0833 30.9418 15.4433 31.5825 16.0841C32.2233 16.7248 32.5833 17.5938 32.5833 18.5C32.5833 19.4062 32.2233 20.2752 31.5825 20.916C30.9418 21.5567 30.0727 21.9167 29.1666 21.9167H27.4583M18.9166 6.54167V4.83334C18.9166 3.92718 18.5566 3.05814 17.9159 2.41739C17.2751 1.77664 16.4061 1.41667 15.4999 1.41667C14.5938 1.41667 13.7247 1.77664 13.084 2.41739C12.4432 3.05814 12.0833 3.92718 12.0833 4.83334V6.54167" stroke="#828282" stroke-width="2.27208" stroke-linecap="round" stroke-linejoin="round"/>
</svg>
